<svg width="30" height="41" viewBox="0 0 30 41" fill="none" xmlns="http://www.w3.org/2000/svg">
<path d="M14.9993 9.48761C13.9076 9.48761 12.8403 9.81135 11.9326 10.4179C11.0248 11.0244 10.3173 11.8865 9.89952 12.8952C9.48173 13.9038 9.37242 15.0137 9.58541 16.0845C9.7984 17.1552 10.3241 18.1388 11.0961 18.9108C11.8681 19.6828 12.8516 20.2085 13.9224 20.4215C14.9932 20.6345 16.1031 20.5251 17.1117 20.1074C18.1203 19.6896 18.9824 18.9821 19.589 18.0743C20.1955 17.1665 20.5193 16.0993 20.5193 15.0076C20.5176 13.5441 19.9355 12.141 18.9007 11.1062C17.8658 10.0714 16.4628 9.48928 14.9993 9.48761ZM14.9993 17.7676C14.4534 17.7676 13.9198 17.6057 13.4659 17.3024C13.0121 16.9991 12.6583 16.5681 12.4494 16.0638C12.2405 15.5595 12.1859 15.0045 12.2924 14.4691C12.3988 13.9337 12.6617 13.442 13.0477 13.056C13.4337 12.67 13.9255 12.4071 14.4609 12.3006C14.9962 12.1941 15.5512 12.2488 16.0555 12.4577C16.5598 12.6666 16.9909 13.0203 17.2941 13.4742C17.5974 13.9281 17.7593 14.4617 17.7593 15.0076C17.7584 15.7393 17.4674 16.4408 16.95 16.9582C16.4326 17.4757 15.731 17.7667 14.9993 17.7676Z" fill="#00B2FF"/>
<path d="M25.6064 4.39226C22.9838 1.77032 19.483 0.212776 15.7795 0.0202441C12.076 -0.172287 8.43253 1.01384 5.55218 3.3497C2.67183 5.68557 0.758823 9.00557 0.182374 12.669C-0.394075 16.3323 0.406899 20.0794 2.43071 23.187L12.8589 39.196C13.0909 39.5522 13.4082 39.8449 13.782 40.0475C14.1558 40.2501 14.5742 40.3562 14.9994 40.3562C15.4245 40.3562 15.8429 40.2501 16.2167 40.0475C16.5905 39.8449 16.9078 39.5522 17.1399 39.196L27.5684 23.187C29.4462 20.3043 30.2761 16.8637 29.9189 13.4418C29.5617 10.02 28.0392 6.825 25.6064 4.39226ZM25.2558 21.6804L14.9994 37.4253L4.74288 21.6804C1.6034 16.8609 2.27675 10.4112 6.34393 6.34383C7.48057 5.20715 8.82997 4.30549 10.3151 3.69033C11.8002 3.07516 13.3919 2.75854 14.9994 2.75854C16.6069 2.75854 18.1986 3.07516 19.6837 3.69033C21.1688 4.30549 22.5182 5.20715 23.6549 6.34383C27.722 10.4112 28.3953 16.8609 25.2558 21.6804Z" fill="#00B2FF"/>
</svg>
